<mxfile host="app.diagrams.net" modified="2024-01-23T06:32:18.999Z" agent="Mozilla/5.0 (Windows NT 10.0; Win64; x64) AppleWebKit/537.36 (KHTML, like Gecko) Chrome/120.0.0.0 Safari/537.36 Edg/120.0.0.0" etag="9fQUU3PecWd7n9Lcb252" version="22.1.21" type="github">
  <diagram name="Page-1" id="_QdWzowAY5_2tpJYNjvo">
    <mxGraphModel dx="2039" dy="1776" grid="1" gridSize="10" guides="1" tooltips="1" connect="1" arrows="1" fold="1" page="1" pageScale="1" pageWidth="850" pageHeight="1100" math="0" shadow="0">
      <root>
        <mxCell id="0" />
        <mxCell id="1" parent="0" />
        <mxCell id="SqxgfFRfLjjIT3GgbSrg-59" value="" style="rounded=0;whiteSpace=wrap;html=1;strokeWidth=3;" parent="1" vertex="1">
          <mxGeometry x="70" y="-830" width="770" height="840" as="geometry" />
        </mxCell>
        <mxCell id="dZkpgGLST4CIbAvVfnqE-1" value="&lt;b&gt;AUDIENCE&lt;/b&gt;" style="shape=umlActor;verticalLabelPosition=bottom;verticalAlign=top;html=1;outlineConnect=0;fillColor=#f8cecc;strokeColor=#b85450;strokeWidth=4;" parent="1" vertex="1">
          <mxGeometry x="-70" y="-390" width="30" height="60" as="geometry" />
        </mxCell>
        <mxCell id="dZkpgGLST4CIbAvVfnqE-3" value="VIEW ARTWORK" style="ellipse;whiteSpace=wrap;html=1;" parent="1" vertex="1">
          <mxGeometry x="200" y="-330" width="120" height="40" as="geometry" />
        </mxCell>
        <mxCell id="dZkpgGLST4CIbAvVfnqE-4" value="VIEW ARTIST" style="ellipse;whiteSpace=wrap;html=1;" parent="1" vertex="1">
          <mxGeometry x="205" y="-530" width="120" height="40" as="geometry" />
        </mxCell>
        <mxCell id="dZkpgGLST4CIbAvVfnqE-5" value="MANAGE&lt;br&gt;REQUEST" style="ellipse;whiteSpace=wrap;html=1;" parent="1" vertex="1">
          <mxGeometry x="90" y="-430" width="120" height="40" as="geometry" />
        </mxCell>
        <mxCell id="dZkpgGLST4CIbAvVfnqE-6" value="MANAGE&lt;br&gt;PROFILE" style="ellipse;whiteSpace=wrap;html=1;" parent="1" vertex="1">
          <mxGeometry x="90" y="-260" width="120" height="40" as="geometry" />
        </mxCell>
        <mxCell id="dZkpgGLST4CIbAvVfnqE-7" value="MANAGE&lt;br&gt;CART" style="ellipse;whiteSpace=wrap;html=1;" parent="1" vertex="1">
          <mxGeometry x="385" y="-160" width="120" height="40" as="geometry" />
        </mxCell>
        <mxCell id="dZkpgGLST4CIbAvVfnqE-18" value="pull request" style="ellipse;whiteSpace=wrap;html=1;" parent="1" vertex="1">
          <mxGeometry x="240" y="-460" width="80" height="40" as="geometry" />
        </mxCell>
        <mxCell id="dZkpgGLST4CIbAvVfnqE-19" value="cancel&lt;br&gt;request" style="ellipse;whiteSpace=wrap;html=1;" parent="1" vertex="1">
          <mxGeometry x="240" y="-400" width="80" height="40" as="geometry" />
        </mxCell>
        <mxCell id="dZkpgGLST4CIbAvVfnqE-20" value="" style="endArrow=classic;html=1;rounded=0;exitX=0;exitY=0.5;exitDx=0;exitDy=0;entryX=1;entryY=1;entryDx=0;entryDy=0;dashed=1;" parent="1" source="dZkpgGLST4CIbAvVfnqE-19" target="dZkpgGLST4CIbAvVfnqE-5" edge="1">
          <mxGeometry width="50" height="50" relative="1" as="geometry">
            <mxPoint x="220" y="-490" as="sourcePoint" />
            <mxPoint x="202" y="-506" as="targetPoint" />
          </mxGeometry>
        </mxCell>
        <mxCell id="SqxgfFRfLjjIT3GgbSrg-22" value="&lt;font style=&quot;font-size: 8px;&quot;&gt;&amp;lt;&amp;lt;extend&amp;gt;&amp;gt;&lt;/font&gt;" style="edgeLabel;html=1;align=center;verticalAlign=middle;resizable=0;points=[];" parent="dZkpgGLST4CIbAvVfnqE-20" vertex="1" connectable="0">
          <mxGeometry x="0.1355" relative="1" as="geometry">
            <mxPoint x="-4" y="5" as="offset" />
          </mxGeometry>
        </mxCell>
        <mxCell id="dZkpgGLST4CIbAvVfnqE-21" value="" style="endArrow=classic;html=1;rounded=0;exitX=0;exitY=0.5;exitDx=0;exitDy=0;entryX=1;entryY=0;entryDx=0;entryDy=0;dashed=1;" parent="1" source="dZkpgGLST4CIbAvVfnqE-18" target="dZkpgGLST4CIbAvVfnqE-5" edge="1">
          <mxGeometry width="50" height="50" relative="1" as="geometry">
            <mxPoint x="220" y="-490" as="sourcePoint" />
            <mxPoint x="202" y="-506" as="targetPoint" />
          </mxGeometry>
        </mxCell>
        <mxCell id="SqxgfFRfLjjIT3GgbSrg-21" value="&lt;font style=&quot;font-size: 8px;&quot;&gt;&amp;lt;&amp;lt;include&amp;gt;&amp;gt;&lt;/font&gt;" style="edgeLabel;html=1;align=center;verticalAlign=middle;resizable=0;points=[];" parent="dZkpgGLST4CIbAvVfnqE-21" vertex="1" connectable="0">
          <mxGeometry x="-0.1753" y="2" relative="1" as="geometry">
            <mxPoint x="-12" y="-2" as="offset" />
          </mxGeometry>
        </mxCell>
        <mxCell id="dZkpgGLST4CIbAvVfnqE-22" value="update&lt;br&gt;profile" style="ellipse;whiteSpace=wrap;html=1;" parent="1" vertex="1">
          <mxGeometry x="260" y="-230" width="80" height="40" as="geometry" />
        </mxCell>
        <mxCell id="dZkpgGLST4CIbAvVfnqE-24" value="" style="endArrow=classic;html=1;rounded=0;exitX=0;exitY=0.5;exitDx=0;exitDy=0;entryX=1;entryY=0.5;entryDx=0;entryDy=0;dashed=1;" parent="1" source="dZkpgGLST4CIbAvVfnqE-22" target="dZkpgGLST4CIbAvVfnqE-6" edge="1">
          <mxGeometry width="50" height="50" relative="1" as="geometry">
            <mxPoint x="240" y="-290" as="sourcePoint" />
            <mxPoint x="202" y="-306" as="targetPoint" />
          </mxGeometry>
        </mxCell>
        <mxCell id="SqxgfFRfLjjIT3GgbSrg-55" value="&lt;font style=&quot;font-size: 8px;&quot;&gt;&amp;lt;&amp;lt;include&amp;gt;&amp;gt;&lt;/font&gt;" style="edgeLabel;html=1;align=center;verticalAlign=middle;resizable=0;points=[];" parent="dZkpgGLST4CIbAvVfnqE-24" vertex="1" connectable="0">
          <mxGeometry x="-0.0568" relative="1" as="geometry">
            <mxPoint as="offset" />
          </mxGeometry>
        </mxCell>
        <mxCell id="dZkpgGLST4CIbAvVfnqE-25" value="add artwork&lt;br&gt;to cart" style="ellipse;whiteSpace=wrap;html=1;" parent="1" vertex="1">
          <mxGeometry x="520" y="-110" width="80" height="40" as="geometry" />
        </mxCell>
        <mxCell id="dZkpgGLST4CIbAvVfnqE-26" value="remove artwork from cart" style="ellipse;whiteSpace=wrap;html=1;" parent="1" vertex="1">
          <mxGeometry x="405" y="-90" width="80" height="40" as="geometry" />
        </mxCell>
        <mxCell id="dZkpgGLST4CIbAvVfnqE-27" value="checkout" style="ellipse;whiteSpace=wrap;html=1;" parent="1" vertex="1">
          <mxGeometry x="290" y="-110" width="80" height="40" as="geometry" />
        </mxCell>
        <mxCell id="dZkpgGLST4CIbAvVfnqE-29" value="" style="endArrow=classic;html=1;rounded=0;exitX=1;exitY=0;exitDx=0;exitDy=0;entryX=0;entryY=1;entryDx=0;entryDy=0;dashed=1;" parent="1" source="dZkpgGLST4CIbAvVfnqE-27" target="dZkpgGLST4CIbAvVfnqE-7" edge="1">
          <mxGeometry width="50" height="50" relative="1" as="geometry">
            <mxPoint x="535" y="-290" as="sourcePoint" />
            <mxPoint x="497" y="-306" as="targetPoint" />
          </mxGeometry>
        </mxCell>
        <mxCell id="SqxgfFRfLjjIT3GgbSrg-51" value="&amp;lt;&amp;lt;include&amp;gt;&amp;gt;" style="edgeLabel;html=1;align=center;verticalAlign=middle;resizable=0;points=[];fontSize=8;" parent="dZkpgGLST4CIbAvVfnqE-29" vertex="1" connectable="0">
          <mxGeometry x="-0.0737" relative="1" as="geometry">
            <mxPoint as="offset" />
          </mxGeometry>
        </mxCell>
        <mxCell id="dZkpgGLST4CIbAvVfnqE-30" value="" style="endArrow=classic;html=1;rounded=0;exitX=0;exitY=0;exitDx=0;exitDy=0;entryX=1;entryY=1;entryDx=0;entryDy=0;dashed=1;" parent="1" source="dZkpgGLST4CIbAvVfnqE-25" target="dZkpgGLST4CIbAvVfnqE-7" edge="1">
          <mxGeometry width="50" height="50" relative="1" as="geometry">
            <mxPoint x="535" y="-80" as="sourcePoint" />
            <mxPoint x="495" y="-130" as="targetPoint" />
          </mxGeometry>
        </mxCell>
        <mxCell id="SqxgfFRfLjjIT3GgbSrg-52" value="&amp;lt;&amp;lt;include&amp;gt;&amp;gt;" style="edgeLabel;html=1;align=center;verticalAlign=middle;resizable=0;points=[];fontSize=8;" parent="dZkpgGLST4CIbAvVfnqE-30" vertex="1" connectable="0">
          <mxGeometry x="-0.3085" y="1" relative="1" as="geometry">
            <mxPoint x="-1" y="-3" as="offset" />
          </mxGeometry>
        </mxCell>
        <mxCell id="dZkpgGLST4CIbAvVfnqE-31" value="" style="endArrow=classic;html=1;rounded=0;exitX=0.5;exitY=0;exitDx=0;exitDy=0;entryX=0.5;entryY=1;entryDx=0;entryDy=0;dashed=1;" parent="1" source="dZkpgGLST4CIbAvVfnqE-26" target="dZkpgGLST4CIbAvVfnqE-7" edge="1">
          <mxGeometry width="50" height="50" relative="1" as="geometry">
            <mxPoint x="535" y="-180" as="sourcePoint" />
            <mxPoint x="505" y="-140" as="targetPoint" />
          </mxGeometry>
        </mxCell>
        <mxCell id="SqxgfFRfLjjIT3GgbSrg-53" value="&amp;lt;&amp;lt;extend&amp;gt;&amp;gt;" style="edgeLabel;html=1;align=center;verticalAlign=middle;resizable=0;points=[];fontSize=8;" parent="dZkpgGLST4CIbAvVfnqE-31" vertex="1" connectable="0">
          <mxGeometry x="-0.2092" y="-1" relative="1" as="geometry">
            <mxPoint as="offset" />
          </mxGeometry>
        </mxCell>
        <mxCell id="dZkpgGLST4CIbAvVfnqE-32" value="like artwork" style="ellipse;whiteSpace=wrap;html=1;" parent="1" vertex="1">
          <mxGeometry x="385" y="-330" width="80" height="40" as="geometry" />
        </mxCell>
        <mxCell id="dZkpgGLST4CIbAvVfnqE-33" value="comment artwork" style="ellipse;whiteSpace=wrap;html=1;" parent="1" vertex="1">
          <mxGeometry x="330" y="-280" width="80" height="40" as="geometry" />
        </mxCell>
        <mxCell id="dZkpgGLST4CIbAvVfnqE-34" value="add to cart" style="ellipse;whiteSpace=wrap;html=1;" parent="1" vertex="1">
          <mxGeometry x="330" y="-380" width="80" height="40" as="geometry" />
        </mxCell>
        <mxCell id="dZkpgGLST4CIbAvVfnqE-37" value="" style="endArrow=classic;html=1;rounded=0;exitX=0;exitY=0.5;exitDx=0;exitDy=0;entryX=1;entryY=1;entryDx=0;entryDy=0;dashed=1;" parent="1" source="dZkpgGLST4CIbAvVfnqE-33" target="dZkpgGLST4CIbAvVfnqE-3" edge="1">
          <mxGeometry width="50" height="50" relative="1" as="geometry">
            <mxPoint x="340" y="-220" as="sourcePoint" />
            <mxPoint x="320" y="-300" as="targetPoint" />
          </mxGeometry>
        </mxCell>
        <mxCell id="SqxgfFRfLjjIT3GgbSrg-26" value="&amp;lt;&amp;lt;extend&amp;gt;&amp;gt;" style="edgeLabel;html=1;align=center;verticalAlign=middle;resizable=0;points=[];fontSize=8;" parent="dZkpgGLST4CIbAvVfnqE-37" vertex="1" connectable="0">
          <mxGeometry x="-0.1763" y="1" relative="1" as="geometry">
            <mxPoint x="-3" y="2" as="offset" />
          </mxGeometry>
        </mxCell>
        <mxCell id="dZkpgGLST4CIbAvVfnqE-38" value="" style="endArrow=classic;html=1;rounded=0;exitX=0;exitY=0.5;exitDx=0;exitDy=0;dashed=1;" parent="1" source="dZkpgGLST4CIbAvVfnqE-32" edge="1">
          <mxGeometry width="50" height="50" relative="1" as="geometry">
            <mxPoint x="340" y="-270" as="sourcePoint" />
            <mxPoint x="320" y="-310" as="targetPoint" />
          </mxGeometry>
        </mxCell>
        <mxCell id="SqxgfFRfLjjIT3GgbSrg-25" value="&amp;lt;&amp;lt;extend&amp;gt;&amp;gt;" style="edgeLabel;html=1;align=center;verticalAlign=middle;resizable=0;points=[];fontSize=8;" parent="dZkpgGLST4CIbAvVfnqE-38" vertex="1" connectable="0">
          <mxGeometry x="-0.1388" y="1" relative="1" as="geometry">
            <mxPoint x="-3" y="-4" as="offset" />
          </mxGeometry>
        </mxCell>
        <mxCell id="dZkpgGLST4CIbAvVfnqE-39" value="" style="endArrow=classic;html=1;rounded=0;exitX=0;exitY=0.5;exitDx=0;exitDy=0;entryX=1;entryY=0;entryDx=0;entryDy=0;dashed=1;" parent="1" source="dZkpgGLST4CIbAvVfnqE-34" target="dZkpgGLST4CIbAvVfnqE-3" edge="1">
          <mxGeometry width="50" height="50" relative="1" as="geometry">
            <mxPoint x="350" y="-330" as="sourcePoint" />
            <mxPoint x="300" y="-320" as="targetPoint" />
          </mxGeometry>
        </mxCell>
        <mxCell id="SqxgfFRfLjjIT3GgbSrg-23" value="&lt;font style=&quot;font-size: 8px;&quot;&gt;&amp;lt;&amp;lt;extend&amp;gt;&amp;gt;&lt;/font&gt;" style="edgeLabel;html=1;align=center;verticalAlign=middle;resizable=0;points=[];" parent="dZkpgGLST4CIbAvVfnqE-39" vertex="1" connectable="0">
          <mxGeometry x="0.0059" relative="1" as="geometry">
            <mxPoint as="offset" />
          </mxGeometry>
        </mxCell>
        <mxCell id="dZkpgGLST4CIbAvVfnqE-40" value="follow artist" style="ellipse;whiteSpace=wrap;html=1;" parent="1" vertex="1">
          <mxGeometry x="390" y="-530" width="80" height="40" as="geometry" />
        </mxCell>
        <mxCell id="dZkpgGLST4CIbAvVfnqE-44" value="" style="endArrow=classic;html=1;rounded=0;exitX=0;exitY=0.5;exitDx=0;exitDy=0;entryX=1;entryY=0.5;entryDx=0;entryDy=0;dashed=1;" parent="1" source="dZkpgGLST4CIbAvVfnqE-40" target="dZkpgGLST4CIbAvVfnqE-4" edge="1">
          <mxGeometry width="50" height="50" relative="1" as="geometry">
            <mxPoint x="355" y="-450" as="sourcePoint" />
            <mxPoint x="307" y="-524" as="targetPoint" />
          </mxGeometry>
        </mxCell>
        <mxCell id="SqxgfFRfLjjIT3GgbSrg-18" value="&amp;lt;&amp;lt;extend&amp;gt;&amp;gt;" style="edgeLabel;html=1;align=center;verticalAlign=middle;resizable=0;points=[];fontSize=8;" parent="dZkpgGLST4CIbAvVfnqE-44" vertex="1" connectable="0">
          <mxGeometry x="-0.3032" y="3" relative="1" as="geometry">
            <mxPoint x="-7" y="-3" as="offset" />
          </mxGeometry>
        </mxCell>
        <mxCell id="dZkpgGLST4CIbAvVfnqE-46" value="&lt;b&gt;ARTIST&lt;/b&gt;" style="shape=umlActor;verticalLabelPosition=bottom;verticalAlign=top;html=1;outlineConnect=0;fillColor=#dae8fc;strokeColor=#6c8ebf;strokeWidth=4;" parent="1" vertex="1">
          <mxGeometry x="1000" y="-350" width="30" height="60" as="geometry" />
        </mxCell>
        <mxCell id="dZkpgGLST4CIbAvVfnqE-57" value="MANAGE&lt;br&gt;ARTWORK" style="ellipse;whiteSpace=wrap;html=1;" parent="1" vertex="1">
          <mxGeometry x="600" y="-250" width="120" height="40" as="geometry" />
        </mxCell>
        <mxCell id="dZkpgGLST4CIbAvVfnqE-59" value="VIEW REQUEST" style="ellipse;whiteSpace=wrap;html=1;" parent="1" vertex="1">
          <mxGeometry x="700" y="-370" width="120" height="40" as="geometry" />
        </mxCell>
        <mxCell id="dZkpgGLST4CIbAvVfnqE-61" value="MANAGE&lt;br&gt;PROFILE" style="ellipse;whiteSpace=wrap;html=1;" parent="1" vertex="1">
          <mxGeometry x="600" y="-490" width="120" height="40" as="geometry" />
        </mxCell>
        <mxCell id="dZkpgGLST4CIbAvVfnqE-73" value="edit artwork" style="ellipse;whiteSpace=wrap;html=1;" parent="1" vertex="1">
          <mxGeometry x="450" y="-250" width="80" height="40" as="geometry" />
        </mxCell>
        <mxCell id="dZkpgGLST4CIbAvVfnqE-74" value="remove artwork" style="ellipse;whiteSpace=wrap;html=1;" parent="1" vertex="1">
          <mxGeometry x="480" y="-200" width="80" height="40" as="geometry" />
        </mxCell>
        <mxCell id="dZkpgGLST4CIbAvVfnqE-75" value="submit artwork" style="ellipse;whiteSpace=wrap;html=1;" parent="1" vertex="1">
          <mxGeometry x="480" y="-300" width="80" height="40" as="geometry" />
        </mxCell>
        <mxCell id="dZkpgGLST4CIbAvVfnqE-81" value="" style="endArrow=classic;html=1;rounded=0;exitX=1;exitY=0.5;exitDx=0;exitDy=0;entryX=0;entryY=0;entryDx=0;entryDy=0;dashed=1;" parent="1" source="dZkpgGLST4CIbAvVfnqE-75" target="dZkpgGLST4CIbAvVfnqE-57" edge="1">
          <mxGeometry width="50" height="50" relative="1" as="geometry">
            <mxPoint x="590" y="-90" as="sourcePoint" />
            <mxPoint x="628" y="-74" as="targetPoint" />
          </mxGeometry>
        </mxCell>
        <mxCell id="SqxgfFRfLjjIT3GgbSrg-41" value="&amp;lt;&amp;lt;include&amp;gt;&amp;gt;" style="edgeLabel;html=1;align=center;verticalAlign=middle;resizable=0;points=[];fontSize=8;" parent="dZkpgGLST4CIbAvVfnqE-81" vertex="1" connectable="0">
          <mxGeometry x="-0.0151" y="-2" relative="1" as="geometry">
            <mxPoint as="offset" />
          </mxGeometry>
        </mxCell>
        <mxCell id="dZkpgGLST4CIbAvVfnqE-82" value="" style="endArrow=classic;html=1;rounded=0;exitX=1;exitY=0.5;exitDx=0;exitDy=0;entryX=0;entryY=1;entryDx=0;entryDy=0;dashed=1;" parent="1" source="dZkpgGLST4CIbAvVfnqE-74" target="dZkpgGLST4CIbAvVfnqE-57" edge="1">
          <mxGeometry width="50" height="50" relative="1" as="geometry">
            <mxPoint x="590" y="-270" as="sourcePoint" />
            <mxPoint x="628" y="-234" as="targetPoint" />
          </mxGeometry>
        </mxCell>
        <mxCell id="SqxgfFRfLjjIT3GgbSrg-44" value="&amp;lt;&amp;lt;extend&amp;gt;&amp;gt;" style="edgeLabel;html=1;align=center;verticalAlign=middle;resizable=0;points=[];fontSize=8;" parent="dZkpgGLST4CIbAvVfnqE-82" vertex="1" connectable="0">
          <mxGeometry x="0.0319" relative="1" as="geometry">
            <mxPoint as="offset" />
          </mxGeometry>
        </mxCell>
        <mxCell id="dZkpgGLST4CIbAvVfnqE-83" value="" style="endArrow=classic;html=1;rounded=0;exitX=1;exitY=0.5;exitDx=0;exitDy=0;dashed=1;" parent="1" source="dZkpgGLST4CIbAvVfnqE-73" edge="1">
          <mxGeometry width="50" height="50" relative="1" as="geometry">
            <mxPoint x="600" y="-260" as="sourcePoint" />
            <mxPoint x="600" y="-230" as="targetPoint" />
          </mxGeometry>
        </mxCell>
        <mxCell id="SqxgfFRfLjjIT3GgbSrg-42" value="&amp;lt;&amp;lt;extend&amp;gt;&amp;gt;" style="edgeLabel;html=1;align=center;verticalAlign=middle;resizable=0;points=[];fontSize=8;" parent="dZkpgGLST4CIbAvVfnqE-83" vertex="1" connectable="0">
          <mxGeometry x="-0.1143" relative="1" as="geometry">
            <mxPoint as="offset" />
          </mxGeometry>
        </mxCell>
        <mxCell id="dZkpgGLST4CIbAvVfnqE-87" value="accept request" style="ellipse;whiteSpace=wrap;html=1;" parent="1" vertex="1">
          <mxGeometry x="550" y="-370" width="80" height="40" as="geometry" />
        </mxCell>
        <mxCell id="dZkpgGLST4CIbAvVfnqE-88" value="" style="endArrow=classic;html=1;rounded=0;exitX=1;exitY=0.5;exitDx=0;exitDy=0;dashed=1;" parent="1" source="dZkpgGLST4CIbAvVfnqE-87" edge="1">
          <mxGeometry width="50" height="50" relative="1" as="geometry">
            <mxPoint x="210" y="-390" as="sourcePoint" />
            <mxPoint x="700" y="-350" as="targetPoint" />
          </mxGeometry>
        </mxCell>
        <mxCell id="SqxgfFRfLjjIT3GgbSrg-39" value="&amp;lt;&amp;lt;extend&amp;gt;&amp;gt;" style="edgeLabel;html=1;align=center;verticalAlign=middle;resizable=0;points=[];fontSize=8;" parent="dZkpgGLST4CIbAvVfnqE-88" vertex="1" connectable="0">
          <mxGeometry x="-0.0168" y="-1" relative="1" as="geometry">
            <mxPoint as="offset" />
          </mxGeometry>
        </mxCell>
        <mxCell id="dZkpgGLST4CIbAvVfnqE-95" value="update profile" style="ellipse;whiteSpace=wrap;html=1;" parent="1" vertex="1">
          <mxGeometry x="450" y="-490" width="80" height="40" as="geometry" />
        </mxCell>
        <mxCell id="dZkpgGLST4CIbAvVfnqE-96" value="" style="endArrow=classic;html=1;rounded=0;exitX=1;exitY=0.5;exitDx=0;exitDy=0;entryX=0;entryY=0.5;entryDx=0;entryDy=0;dashed=1;" parent="1" source="dZkpgGLST4CIbAvVfnqE-95" target="dZkpgGLST4CIbAvVfnqE-61" edge="1">
          <mxGeometry width="50" height="50" relative="1" as="geometry">
            <mxPoint x="590" y="-390" as="sourcePoint" />
            <mxPoint x="628" y="-374" as="targetPoint" />
          </mxGeometry>
        </mxCell>
        <mxCell id="SqxgfFRfLjjIT3GgbSrg-36" value="&amp;lt;&amp;lt;include&amp;gt;&amp;gt;" style="edgeLabel;html=1;align=center;verticalAlign=middle;resizable=0;points=[];fontSize=8;" parent="dZkpgGLST4CIbAvVfnqE-96" vertex="1" connectable="0">
          <mxGeometry x="-0.0737" y="-1" relative="1" as="geometry">
            <mxPoint x="-3" y="-1" as="offset" />
          </mxGeometry>
        </mxCell>
        <mxCell id="dZkpgGLST4CIbAvVfnqE-97" value="&lt;b&gt;MODERATOR&lt;br&gt;&lt;/b&gt;" style="shape=umlActor;verticalLabelPosition=bottom;verticalAlign=top;html=1;outlineConnect=0;fillColor=#fff2cc;strokeColor=#d6b656;strokeWidth=4;" parent="1" vertex="1">
          <mxGeometry x="890" y="-650" width="30" height="60" as="geometry" />
        </mxCell>
        <mxCell id="dZkpgGLST4CIbAvVfnqE-98" value="CENSOR&lt;br&gt;ARTWORK" style="ellipse;whiteSpace=wrap;html=1;" parent="1" vertex="1">
          <mxGeometry x="600" y="-690" width="120" height="40" as="geometry" />
        </mxCell>
        <mxCell id="dZkpgGLST4CIbAvVfnqE-99" value="MANAGE USER" style="ellipse;whiteSpace=wrap;html=1;" parent="1" vertex="1">
          <mxGeometry x="690" y="-590" width="120" height="40" as="geometry" />
        </mxCell>
        <mxCell id="dZkpgGLST4CIbAvVfnqE-100" value="re-activate account" style="ellipse;whiteSpace=wrap;html=1;" parent="1" vertex="1">
          <mxGeometry x="580" y="-550" width="80" height="40" as="geometry" />
        </mxCell>
        <mxCell id="dZkpgGLST4CIbAvVfnqE-101" value="change user role" style="ellipse;whiteSpace=wrap;html=1;" parent="1" vertex="1">
          <mxGeometry x="580" y="-630" width="80" height="40" as="geometry" />
        </mxCell>
        <mxCell id="dZkpgGLST4CIbAvVfnqE-102" value="" style="endArrow=classic;html=1;rounded=0;exitX=1;exitY=0.5;exitDx=0;exitDy=0;entryX=0;entryY=0;entryDx=0;entryDy=0;dashed=1;" parent="1" source="dZkpgGLST4CIbAvVfnqE-101" target="dZkpgGLST4CIbAvVfnqE-99" edge="1">
          <mxGeometry width="50" height="50" relative="1" as="geometry">
            <mxPoint x="200" y="-650" as="sourcePoint" />
            <mxPoint x="162" y="-716" as="targetPoint" />
          </mxGeometry>
        </mxCell>
        <mxCell id="SqxgfFRfLjjIT3GgbSrg-33" value="&amp;lt;&amp;lt;extend&amp;gt;&amp;gt;" style="edgeLabel;html=1;align=center;verticalAlign=middle;resizable=0;points=[];fontSize=8;" parent="dZkpgGLST4CIbAvVfnqE-102" vertex="1" connectable="0">
          <mxGeometry x="-0.0831" y="2" relative="1" as="geometry">
            <mxPoint as="offset" />
          </mxGeometry>
        </mxCell>
        <mxCell id="dZkpgGLST4CIbAvVfnqE-103" value="" style="endArrow=classic;html=1;rounded=0;exitX=1;exitY=0.5;exitDx=0;exitDy=0;entryX=0;entryY=1;entryDx=0;entryDy=0;dashed=1;" parent="1" source="dZkpgGLST4CIbAvVfnqE-100" target="dZkpgGLST4CIbAvVfnqE-99" edge="1">
          <mxGeometry width="50" height="50" relative="1" as="geometry">
            <mxPoint x="680" y="-640" as="sourcePoint" />
            <mxPoint x="718" y="-574" as="targetPoint" />
          </mxGeometry>
        </mxCell>
        <mxCell id="SqxgfFRfLjjIT3GgbSrg-35" value="&amp;lt;&amp;lt;extend&amp;gt;&amp;gt;" style="edgeLabel;html=1;align=center;verticalAlign=middle;resizable=0;points=[];fontSize=8;" parent="dZkpgGLST4CIbAvVfnqE-103" vertex="1" connectable="0">
          <mxGeometry x="-0.1761" y="1" relative="1" as="geometry">
            <mxPoint as="offset" />
          </mxGeometry>
        </mxCell>
        <mxCell id="dZkpgGLST4CIbAvVfnqE-104" value="change artwork properties" style="ellipse;whiteSpace=wrap;html=1;" parent="1" vertex="1">
          <mxGeometry x="485" y="-660" width="80" height="40" as="geometry" />
        </mxCell>
        <mxCell id="dZkpgGLST4CIbAvVfnqE-106" value="remove artwork" style="ellipse;whiteSpace=wrap;html=1;" parent="1" vertex="1">
          <mxGeometry x="485" y="-720" width="80" height="40" as="geometry" />
        </mxCell>
        <mxCell id="dZkpgGLST4CIbAvVfnqE-107" value="" style="endArrow=classic;html=1;rounded=0;exitX=1;exitY=0.5;exitDx=0;exitDy=0;entryX=0;entryY=0;entryDx=0;entryDy=0;dashed=1;" parent="1" source="dZkpgGLST4CIbAvVfnqE-106" target="dZkpgGLST4CIbAvVfnqE-98" edge="1">
          <mxGeometry width="50" height="50" relative="1" as="geometry">
            <mxPoint x="590" y="-530" as="sourcePoint" />
            <mxPoint x="628" y="-514" as="targetPoint" />
          </mxGeometry>
        </mxCell>
        <mxCell id="SqxgfFRfLjjIT3GgbSrg-29" value="&amp;lt;&amp;lt;extend&amp;gt;&amp;gt;" style="edgeLabel;html=1;align=center;verticalAlign=middle;resizable=0;points=[];fontSize=8;" parent="dZkpgGLST4CIbAvVfnqE-107" vertex="1" connectable="0">
          <mxGeometry x="-0.004" y="2" relative="1" as="geometry">
            <mxPoint as="offset" />
          </mxGeometry>
        </mxCell>
        <mxCell id="dZkpgGLST4CIbAvVfnqE-109" value="" style="endArrow=classic;html=1;rounded=0;exitX=1;exitY=0.5;exitDx=0;exitDy=0;entryX=0;entryY=1;entryDx=0;entryDy=0;dashed=1;" parent="1" source="dZkpgGLST4CIbAvVfnqE-104" target="dZkpgGLST4CIbAvVfnqE-98" edge="1">
          <mxGeometry width="50" height="50" relative="1" as="geometry">
            <mxPoint x="600" y="-700" as="sourcePoint" />
            <mxPoint x="600" y="-670" as="targetPoint" />
          </mxGeometry>
        </mxCell>
        <mxCell id="SqxgfFRfLjjIT3GgbSrg-30" value="&amp;lt;&amp;lt;extend&amp;gt;&amp;gt;" style="edgeLabel;html=1;align=center;verticalAlign=middle;resizable=0;points=[];fontSize=8;" parent="dZkpgGLST4CIbAvVfnqE-109" vertex="1" connectable="0">
          <mxGeometry x="-0.1997" y="2" relative="1" as="geometry">
            <mxPoint x="6" y="2" as="offset" />
          </mxGeometry>
        </mxCell>
        <mxCell id="dZkpgGLST4CIbAvVfnqE-110" value="deactivate account" style="ellipse;whiteSpace=wrap;html=1;" parent="1" vertex="1">
          <mxGeometry x="540" y="-590" width="80" height="40" as="geometry" />
        </mxCell>
        <mxCell id="dZkpgGLST4CIbAvVfnqE-121" value="BECOME ARTIST REGISTER" style="ellipse;whiteSpace=wrap;html=1;" parent="1" vertex="1">
          <mxGeometry x="90" y="-200" width="120" height="40" as="geometry" />
        </mxCell>
        <mxCell id="dZkpgGLST4CIbAvVfnqE-122" value="&lt;b&gt;GUESS&lt;/b&gt;" style="shape=umlActor;verticalLabelPosition=bottom;verticalAlign=top;html=1;outlineConnect=0;fillColor=#f5f5f5;fontColor=#333333;strokeColor=#666666;strokeWidth=4;" parent="1" vertex="1">
          <mxGeometry x="20" y="-670" width="30" height="60" as="geometry" />
        </mxCell>
        <mxCell id="dZkpgGLST4CIbAvVfnqE-123" value="SIGN IN" style="ellipse;whiteSpace=wrap;html=1;" parent="1" vertex="1">
          <mxGeometry x="110" y="-620" width="120" height="40" as="geometry" />
        </mxCell>
        <mxCell id="dZkpgGLST4CIbAvVfnqE-124" value="SIGN UP" style="ellipse;whiteSpace=wrap;html=1;" parent="1" vertex="1">
          <mxGeometry x="200" y="-700" width="120" height="40" as="geometry" />
        </mxCell>
        <mxCell id="dZkpgGLST4CIbAvVfnqE-125" value="new account" style="ellipse;whiteSpace=wrap;html=1;" parent="1" vertex="1">
          <mxGeometry x="340" y="-720" width="80" height="40" as="geometry" />
        </mxCell>
        <mxCell id="dZkpgGLST4CIbAvVfnqE-126" value="with Google account" style="ellipse;whiteSpace=wrap;html=1;" parent="1" vertex="1">
          <mxGeometry x="340" y="-670" width="80" height="40" as="geometry" />
        </mxCell>
        <mxCell id="dZkpgGLST4CIbAvVfnqE-127" value="with existed account" style="ellipse;whiteSpace=wrap;html=1;" parent="1" vertex="1">
          <mxGeometry x="250" y="-650" width="80" height="40" as="geometry" />
        </mxCell>
        <mxCell id="dZkpgGLST4CIbAvVfnqE-128" value="with Google account" style="ellipse;whiteSpace=wrap;html=1;" parent="1" vertex="1">
          <mxGeometry x="250" y="-590" width="80" height="40" as="geometry" />
        </mxCell>
        <mxCell id="dZkpgGLST4CIbAvVfnqE-129" value="" style="endArrow=block;html=1;rounded=0;exitX=0;exitY=0.5;exitDx=0;exitDy=0;entryX=1;entryY=0;entryDx=0;entryDy=0;endFill=0;" parent="1" source="dZkpgGLST4CIbAvVfnqE-127" target="dZkpgGLST4CIbAvVfnqE-123" edge="1">
          <mxGeometry width="50" height="50" relative="1" as="geometry">
            <mxPoint x="265" y="-500" as="sourcePoint" />
            <mxPoint x="222" y="-464" as="targetPoint" />
          </mxGeometry>
        </mxCell>
        <mxCell id="dZkpgGLST4CIbAvVfnqE-130" value="" style="endArrow=block;html=1;rounded=0;exitX=0;exitY=0.5;exitDx=0;exitDy=0;entryX=1;entryY=1;entryDx=0;entryDy=0;endFill=0;" parent="1" source="dZkpgGLST4CIbAvVfnqE-128" target="dZkpgGLST4CIbAvVfnqE-123" edge="1">
          <mxGeometry width="50" height="50" relative="1" as="geometry">
            <mxPoint x="275" y="-490" as="sourcePoint" />
            <mxPoint x="232" y="-454" as="targetPoint" />
          </mxGeometry>
        </mxCell>
        <mxCell id="dZkpgGLST4CIbAvVfnqE-131" value="" style="endArrow=none;html=1;rounded=0;exitX=1;exitY=1;exitDx=0;exitDy=0;entryX=0;entryY=0.5;entryDx=0;entryDy=0;endFill=0;startArrow=block;startFill=0;" parent="1" source="dZkpgGLST4CIbAvVfnqE-124" target="dZkpgGLST4CIbAvVfnqE-126" edge="1">
          <mxGeometry width="50" height="50" relative="1" as="geometry">
            <mxPoint x="357.57" y="-670" as="sourcePoint" />
            <mxPoint x="319.99640687119273" y="-685.8578643762692" as="targetPoint" />
          </mxGeometry>
        </mxCell>
        <mxCell id="dZkpgGLST4CIbAvVfnqE-132" value="" style="endArrow=block;html=1;rounded=0;exitX=0;exitY=0.5;exitDx=0;exitDy=0;entryX=1;entryY=0;entryDx=0;entryDy=0;startArrow=none;startFill=0;endFill=0;" parent="1" source="dZkpgGLST4CIbAvVfnqE-125" target="dZkpgGLST4CIbAvVfnqE-124" edge="1">
          <mxGeometry width="50" height="50" relative="1" as="geometry">
            <mxPoint x="385" y="-430" as="sourcePoint" />
            <mxPoint x="342" y="-394" as="targetPoint" />
          </mxGeometry>
        </mxCell>
        <mxCell id="dZkpgGLST4CIbAvVfnqE-133" value="SEARCH ARTOWRK" style="ellipse;whiteSpace=wrap;html=1;" parent="1" vertex="1">
          <mxGeometry x="400" y="-760" width="120" height="40" as="geometry" />
        </mxCell>
        <mxCell id="dZkpgGLST4CIbAvVfnqE-134" value="by name" style="ellipse;whiteSpace=wrap;html=1;" parent="1" vertex="1">
          <mxGeometry x="320" y="-810" width="80" height="40" as="geometry" />
        </mxCell>
        <mxCell id="dZkpgGLST4CIbAvVfnqE-135" value="by genre" style="ellipse;whiteSpace=wrap;html=1;" parent="1" vertex="1">
          <mxGeometry x="520" y="-810" width="80" height="40" as="geometry" />
        </mxCell>
        <mxCell id="dZkpgGLST4CIbAvVfnqE-136" value="by tag" style="ellipse;whiteSpace=wrap;html=1;" parent="1" vertex="1">
          <mxGeometry x="420" y="-820" width="80" height="40" as="geometry" />
        </mxCell>
        <mxCell id="dZkpgGLST4CIbAvVfnqE-140" value="" style="endArrow=classic;html=1;rounded=0;exitX=1;exitY=1;exitDx=0;exitDy=0;entryX=0;entryY=0.5;entryDx=0;entryDy=0;dashed=1;" parent="1" source="dZkpgGLST4CIbAvVfnqE-134" target="dZkpgGLST4CIbAvVfnqE-133" edge="1">
          <mxGeometry width="50" height="50" relative="1" as="geometry">
            <mxPoint x="552" y="-746" as="sourcePoint" />
            <mxPoint x="530" y="-730" as="targetPoint" />
          </mxGeometry>
        </mxCell>
        <mxCell id="SqxgfFRfLjjIT3GgbSrg-13" value="&lt;font style=&quot;font-size: 8px;&quot;&gt;&amp;lt;&amp;lt;extend&amp;gt;&amp;gt;&lt;/font&gt;" style="edgeLabel;html=1;align=center;verticalAlign=middle;resizable=0;points=[];" parent="dZkpgGLST4CIbAvVfnqE-140" vertex="1" connectable="0">
          <mxGeometry x="-0.1867" relative="1" as="geometry">
            <mxPoint as="offset" />
          </mxGeometry>
        </mxCell>
        <mxCell id="dZkpgGLST4CIbAvVfnqE-141" value="" style="endArrow=classic;html=1;rounded=0;exitX=0;exitY=1;exitDx=0;exitDy=0;entryX=1;entryY=0.5;entryDx=0;entryDy=0;dashed=1;" parent="1" source="dZkpgGLST4CIbAvVfnqE-135" target="dZkpgGLST4CIbAvVfnqE-133" edge="1">
          <mxGeometry width="50" height="50" relative="1" as="geometry">
            <mxPoint x="562" y="-736" as="sourcePoint" />
            <mxPoint x="540" y="-720" as="targetPoint" />
          </mxGeometry>
        </mxCell>
        <mxCell id="SqxgfFRfLjjIT3GgbSrg-14" value="&lt;font style=&quot;font-size: 8px;&quot;&gt;&amp;lt;&amp;lt;extend&amp;gt;&amp;gt;&lt;/font&gt;" style="edgeLabel;html=1;align=center;verticalAlign=middle;resizable=0;points=[];" parent="dZkpgGLST4CIbAvVfnqE-141" vertex="1" connectable="0">
          <mxGeometry x="-0.2306" y="2" relative="1" as="geometry">
            <mxPoint as="offset" />
          </mxGeometry>
        </mxCell>
        <mxCell id="dZkpgGLST4CIbAvVfnqE-142" value="" style="endArrow=classic;html=1;rounded=0;exitX=0.5;exitY=1;exitDx=0;exitDy=0;entryX=0.5;entryY=0;entryDx=0;entryDy=0;dashed=1;" parent="1" source="dZkpgGLST4CIbAvVfnqE-136" target="dZkpgGLST4CIbAvVfnqE-133" edge="1">
          <mxGeometry width="50" height="50" relative="1" as="geometry">
            <mxPoint x="572" y="-726" as="sourcePoint" />
            <mxPoint x="450" y="-770" as="targetPoint" />
          </mxGeometry>
        </mxCell>
        <mxCell id="SqxgfFRfLjjIT3GgbSrg-12" value="&lt;font style=&quot;font-size: 8px;&quot;&gt;&amp;lt;&amp;lt;extend&amp;gt;&amp;gt;&lt;/font&gt;" style="edgeLabel;html=1;align=center;verticalAlign=middle;resizable=0;points=[];" parent="dZkpgGLST4CIbAvVfnqE-142" vertex="1" connectable="0">
          <mxGeometry x="-0.2138" relative="1" as="geometry">
            <mxPoint as="offset" />
          </mxGeometry>
        </mxCell>
        <mxCell id="dZkpgGLST4CIbAvVfnqE-153" value="" style="endArrow=none;html=1;rounded=0;fillColor=#f5f5f5;strokeColor=#666666;strokeWidth=3;" parent="1" edge="1">
          <mxGeometry width="50" height="50" relative="1" as="geometry">
            <mxPoint x="60" y="-660" as="sourcePoint" />
            <mxPoint x="190" y="-680" as="targetPoint" />
            <Array as="points">
              <mxPoint x="80" y="-680" />
            </Array>
          </mxGeometry>
        </mxCell>
        <mxCell id="dZkpgGLST4CIbAvVfnqE-154" value="" style="endArrow=none;html=1;rounded=0;fillColor=#f5f5f5;strokeColor=#666666;strokeWidth=3;" parent="1" edge="1">
          <mxGeometry width="50" height="50" relative="1" as="geometry">
            <mxPoint x="60" y="-620" as="sourcePoint" />
            <mxPoint x="100" y="-600" as="targetPoint" />
            <Array as="points">
              <mxPoint x="80" y="-600" />
            </Array>
          </mxGeometry>
        </mxCell>
        <mxCell id="dZkpgGLST4CIbAvVfnqE-155" value="" style="endArrow=none;html=1;rounded=0;fillColor=#f8cecc;strokeColor=#b85450;strokeWidth=3;" parent="1" edge="1">
          <mxGeometry width="50" height="50" relative="1" as="geometry">
            <mxPoint x="-50" y="-400" as="sourcePoint" />
            <mxPoint x="200" y="-510" as="targetPoint" />
            <Array as="points">
              <mxPoint y="-510" />
            </Array>
          </mxGeometry>
        </mxCell>
        <mxCell id="dZkpgGLST4CIbAvVfnqE-156" value="" style="endArrow=none;html=1;rounded=0;fillColor=#f8cecc;strokeColor=#b85450;strokeWidth=3;" parent="1" edge="1">
          <mxGeometry width="50" height="50" relative="1" as="geometry">
            <mxPoint x="-50" y="-310" as="sourcePoint" />
            <mxPoint x="80" y="-180" as="targetPoint" />
            <Array as="points">
              <mxPoint y="-180" />
            </Array>
          </mxGeometry>
        </mxCell>
        <mxCell id="dZkpgGLST4CIbAvVfnqE-157" value="" style="endArrow=none;html=1;rounded=0;fillColor=#f8cecc;strokeColor=#b85450;strokeWidth=3;" parent="1" edge="1">
          <mxGeometry width="50" height="50" relative="1" as="geometry">
            <mxPoint x="-60" y="-310" as="sourcePoint" />
            <mxPoint x="380" y="-140" as="targetPoint" />
            <Array as="points">
              <mxPoint y="-140" />
            </Array>
          </mxGeometry>
        </mxCell>
        <mxCell id="dZkpgGLST4CIbAvVfnqE-158" value="" style="endArrow=none;html=1;rounded=0;fillColor=#f8cecc;strokeColor=#b85450;strokeWidth=3;" parent="1" edge="1">
          <mxGeometry width="50" height="50" relative="1" as="geometry">
            <mxPoint x="-40" y="-310" as="sourcePoint" />
            <mxPoint x="80" y="-240" as="targetPoint" />
            <Array as="points">
              <mxPoint y="-240" />
            </Array>
          </mxGeometry>
        </mxCell>
        <mxCell id="dZkpgGLST4CIbAvVfnqE-159" value="" style="endArrow=none;html=1;rounded=0;fillColor=#f8cecc;strokeColor=#b85450;strokeWidth=3;" parent="1" edge="1">
          <mxGeometry width="50" height="50" relative="1" as="geometry">
            <mxPoint x="-30" y="-330" as="sourcePoint" />
            <mxPoint x="190" y="-310" as="targetPoint" />
            <Array as="points">
              <mxPoint y="-310" />
            </Array>
          </mxGeometry>
        </mxCell>
        <mxCell id="dZkpgGLST4CIbAvVfnqE-160" value="" style="endArrow=none;html=1;rounded=0;fillColor=#dae8fc;strokeColor=#6c8ebf;strokeWidth=3;" parent="1" edge="1">
          <mxGeometry width="50" height="50" relative="1" as="geometry">
            <mxPoint x="990" y="-320" as="sourcePoint" />
            <mxPoint x="830" y="-350" as="targetPoint" />
            <Array as="points">
              <mxPoint x="920" y="-350" />
            </Array>
          </mxGeometry>
        </mxCell>
        <mxCell id="dZkpgGLST4CIbAvVfnqE-161" value="" style="endArrow=none;html=1;rounded=0;fillColor=#dae8fc;strokeColor=#6c8ebf;strokeWidth=3;" parent="1" edge="1">
          <mxGeometry width="50" height="50" relative="1" as="geometry">
            <mxPoint x="990" y="-310" as="sourcePoint" />
            <mxPoint x="730" y="-230" as="targetPoint" />
            <Array as="points">
              <mxPoint x="920" y="-230" />
            </Array>
          </mxGeometry>
        </mxCell>
        <mxCell id="dZkpgGLST4CIbAvVfnqE-164" value="" style="endArrow=none;html=1;rounded=0;fillColor=#dae8fc;strokeColor=#6c8ebf;strokeWidth=3;" parent="1" edge="1">
          <mxGeometry width="50" height="50" relative="1" as="geometry">
            <mxPoint x="1000" y="-360" as="sourcePoint" />
            <mxPoint x="730" y="-470" as="targetPoint" />
            <Array as="points">
              <mxPoint x="920" y="-470" />
            </Array>
          </mxGeometry>
        </mxCell>
        <mxCell id="dZkpgGLST4CIbAvVfnqE-165" value="" style="endArrow=none;html=1;rounded=0;fillColor=#dae8fc;strokeColor=#6c8ebf;strokeWidth=3;" parent="1" edge="1">
          <mxGeometry width="50" height="50" relative="1" as="geometry">
            <mxPoint x="1000" y="-270" as="sourcePoint" />
            <mxPoint x="510" y="-140" as="targetPoint" />
            <Array as="points">
              <mxPoint x="920" y="-140" />
            </Array>
          </mxGeometry>
        </mxCell>
        <mxCell id="dZkpgGLST4CIbAvVfnqE-166" value="" style="endArrow=none;html=1;rounded=0;fillColor=#f8cecc;strokeColor=#b85450;strokeWidth=3;" parent="1" edge="1">
          <mxGeometry width="50" height="50" relative="1" as="geometry">
            <mxPoint x="-40" y="-400" as="sourcePoint" />
            <mxPoint x="80" y="-410" as="targetPoint" />
            <Array as="points">
              <mxPoint y="-410" />
            </Array>
          </mxGeometry>
        </mxCell>
        <mxCell id="dZkpgGLST4CIbAvVfnqE-167" value="" style="endArrow=none;html=1;rounded=0;fillColor=#fff2cc;strokeColor=#d6b656;strokeWidth=3;" parent="1" edge="1">
          <mxGeometry width="50" height="50" relative="1" as="geometry">
            <mxPoint x="880" y="-650" as="sourcePoint" />
            <mxPoint x="730" y="-670" as="targetPoint" />
            <Array as="points">
              <mxPoint x="850" y="-670" />
            </Array>
          </mxGeometry>
        </mxCell>
        <mxCell id="dZkpgGLST4CIbAvVfnqE-169" value="" style="endArrow=none;html=1;rounded=0;fillColor=#fff2cc;strokeColor=#d6b656;strokeWidth=3;" parent="1" edge="1">
          <mxGeometry width="50" height="50" relative="1" as="geometry">
            <mxPoint x="860" y="-580" as="sourcePoint" />
            <mxPoint x="820" y="-570" as="targetPoint" />
            <Array as="points">
              <mxPoint x="850" y="-570" />
            </Array>
          </mxGeometry>
        </mxCell>
        <mxCell id="dZkpgGLST4CIbAvVfnqE-170" value="" style="endArrow=none;html=1;rounded=0;fillColor=#dae8fc;strokeColor=#6c8ebf;strokeWidth=3;" parent="1" edge="1">
          <mxGeometry width="50" height="50" relative="1" as="geometry">
            <mxPoint x="1010" y="-360" as="sourcePoint" />
            <mxPoint x="530" y="-740" as="targetPoint" />
            <Array as="points">
              <mxPoint x="950" y="-740" />
            </Array>
          </mxGeometry>
        </mxCell>
        <mxCell id="dZkpgGLST4CIbAvVfnqE-172" value="" style="endArrow=none;html=1;rounded=0;fillColor=#f5f5f5;strokeColor=#666666;strokeWidth=3;" parent="1" edge="1">
          <mxGeometry width="50" height="50" relative="1" as="geometry">
            <mxPoint x="50" y="-680" as="sourcePoint" />
            <mxPoint x="395" y="-730" as="targetPoint" />
            <Array as="points">
              <mxPoint x="80" y="-730" />
            </Array>
          </mxGeometry>
        </mxCell>
        <mxCell id="dZkpgGLST4CIbAvVfnqE-174" value="" style="endArrow=none;html=1;rounded=0;fillColor=#f8cecc;strokeColor=#b85450;strokeWidth=3;" parent="1" edge="1">
          <mxGeometry width="50" height="50" relative="1" as="geometry">
            <mxPoint x="-60" y="-400" as="sourcePoint" />
            <mxPoint x="390" y="-740" as="targetPoint" />
            <Array as="points">
              <mxPoint y="-740" />
            </Array>
          </mxGeometry>
        </mxCell>
        <mxCell id="dZkpgGLST4CIbAvVfnqE-178" value="LOGOUT" style="ellipse;whiteSpace=wrap;html=1;" parent="1" vertex="1">
          <mxGeometry x="385" y="-40" width="120" height="40" as="geometry" />
        </mxCell>
        <mxCell id="dZkpgGLST4CIbAvVfnqE-179" value="" style="endArrow=none;html=1;rounded=0;fillColor=#f8cecc;strokeColor=#b85450;strokeWidth=3;" parent="1" edge="1">
          <mxGeometry width="50" height="50" relative="1" as="geometry">
            <mxPoint x="-70" y="-310" as="sourcePoint" />
            <mxPoint x="380" y="-20" as="targetPoint" />
            <Array as="points">
              <mxPoint y="-20" />
            </Array>
          </mxGeometry>
        </mxCell>
        <mxCell id="dZkpgGLST4CIbAvVfnqE-180" value="" style="endArrow=none;html=1;rounded=0;fillColor=#dae8fc;strokeColor=#6c8ebf;strokeWidth=3;" parent="1" edge="1">
          <mxGeometry width="50" height="50" relative="1" as="geometry">
            <mxPoint x="1010" y="-270" as="sourcePoint" />
            <mxPoint x="510" y="-20" as="targetPoint" />
            <Array as="points">
              <mxPoint x="920" y="-20" />
            </Array>
          </mxGeometry>
        </mxCell>
        <mxCell id="dZkpgGLST4CIbAvVfnqE-181" value="&lt;font style=&quot;font-size: 26px;&quot;&gt;ARTWORK SHARING PLATFORM&lt;/font&gt;" style="text;html=1;strokeColor=none;fillColor=none;align=center;verticalAlign=middle;whiteSpace=wrap;rounded=0;" parent="1" vertex="1">
          <mxGeometry x="220" y="-870" width="520" height="30" as="geometry" />
        </mxCell>
        <mxCell id="SqxgfFRfLjjIT3GgbSrg-31" value="" style="endArrow=classic;html=1;rounded=0;exitX=1;exitY=0.5;exitDx=0;exitDy=0;entryX=0;entryY=0.5;entryDx=0;entryDy=0;dashed=1;" parent="1" source="dZkpgGLST4CIbAvVfnqE-110" target="dZkpgGLST4CIbAvVfnqE-99" edge="1">
          <mxGeometry width="50" height="50" relative="1" as="geometry">
            <mxPoint x="670" y="-600" as="sourcePoint" />
            <mxPoint x="718" y="-574" as="targetPoint" />
          </mxGeometry>
        </mxCell>
        <mxCell id="SqxgfFRfLjjIT3GgbSrg-34" value="&amp;lt;&amp;lt;extend&amp;gt;&amp;gt;" style="edgeLabel;html=1;align=center;verticalAlign=middle;resizable=0;points=[];fontSize=8;" parent="SqxgfFRfLjjIT3GgbSrg-31" vertex="1" connectable="0">
          <mxGeometry x="0.0696" relative="1" as="geometry">
            <mxPoint as="offset" />
          </mxGeometry>
        </mxCell>
      </root>
    </mxGraphModel>
  </diagram>
</mxfile>
